<svg width="320" height="320" viewBox="0 0 320 320" fill="none" xmlns="http://www.w3.org/2000/svg">
<path d="M206.895 132.925H130.448L187.577 304.825L204.48 295.066C205.975 294.203 206.895 292.609 206.895 290.884V132.925Z" fill="#FF8B47"/>
<path d="M115.961 132.925L160 319.999C160.834 319.999 161.669 319.784 162.416 319.352L187.577 304.825V132.925H115.961Z" fill="#F9B348"/>
<path d="M113.105 132.925V290.884C113.105 292.609 114.025 294.204 115.519 295.066L157.587 319.353C158.334 319.784 159.166 319.999 159.999 320V132.926H113.105V132.925Z" fill="#F3DA49"/>
<path d="M157.588 104.457L115.518 128.744C112.299 130.602 112.299 135.249 115.518 137.107L157.588 161.394C159.082 162.256 160.923 162.256 162.417 161.394L204.481 137.106C207.7 135.248 207.7 130.602 204.481 128.743L162.417 104.456C160.923 103.594 159.082 103.594 157.588 104.457Z" fill="#F9EDA4"/>
<path d="M93.7906 236.76H17.3442L74.4734 304.824L91.3761 295.065C92.8699 294.202 93.7906 292.608 93.7906 290.883V236.76Z" fill="#5515A6"/>
<path d="M2.85718 236.76L46.896 319.998C47.7305 319.998 48.5649 319.783 49.3124 319.351L74.4733 304.824V236.76H2.85718Z" fill="#793BCC"/>
<path d="M0.00195312 236.76V290.883C0.00195312 292.608 0.922031 294.203 2.41643 295.065L44.4844 319.352C45.2307 319.783 46.0632 319.998 46.8963 319.999V236.761L0.00195312 236.76Z" fill="#9255E3"/>
<path d="M44.4844 208.292L2.41448 232.579C-0.804827 234.437 -0.804827 239.084 2.41448 240.942L44.4844 265.228C45.9782 266.091 47.819 266.091 49.3127 265.228L91.3775 240.942C94.5962 239.084 94.5962 234.438 91.3775 232.579L49.3127 208.292C47.819 207.43 45.9782 207.43 44.4844 208.292Z" fill="#AE7DF0"/>
<path d="M320 29.1148H243.553L300.682 304.824L317.585 295.065C319.079 294.202 320 292.608 320 290.883L320 29.1148Z" fill="#3B88F5"/>
<path d="M229.067 29.1148L273.106 319.999C273.94 319.999 274.775 319.784 275.522 319.352L300.683 304.824V29.1148H229.067Z" fill="#28ABFA"/>
<path d="M226.213 29.1148V290.883C226.213 292.608 227.133 294.203 228.627 295.065L270.695 319.352C271.442 319.783 272.274 319.999 273.107 319.999V29.1148H226.213Z" fill="#14CFFF"/>
<path d="M270.695 0.646518L228.625 24.9336C225.406 26.7918 225.406 31.4386 228.625 33.2967L270.695 57.5838C272.189 58.446 274.03 58.446 275.524 57.5838L317.588 33.2974C320.807 31.4392 320.807 26.7931 317.588 24.9343L275.524 0.647161C274.029 -0.215613 272.189 -0.215613 270.695 0.646518Z" fill="#8AE7FF"/>
</svg>
